<svg xmlns="http://www.w3.org/2000/svg" version="1" width="100" height="67.26" viewBox="0 0 100 67.26"><path d="M99.487 54.225a11.63 11.63 0 0 0-2.928-3.501c-.361-.301-.754-.604-1.176-.935a2.003 2.003 0 0 1-.694-.815 17.386 17.386 0 0 1-1.63-4.104c-.422-1.689-.754-3.439-.905-5.221l-.181-1.659-.091-.936-.03-.423v-.061c0-.693-.12-1.388-.362-2.051a3.211 3.211 0 0 0-1.991-1.871 1.69 1.69 0 0 0-.543-.091c-.151 0-.271 0-.393.03-.091.03-.241.061-.422.091l-.664.15-.453.121-.452.121-.694.121-.724.211-.814.182-.725.211-.423.151a2.692 2.692 0 0 1-.633.241c-.121.031-.212.031-.303.031a1.511 1.511 0 0 1-1.207-1.6c.03-.513.061-1.056.061-1.569 0-.845-.061-1.66-.15-2.475l-.061-.513c.181-.03.302-.121.452-.241a4.269 4.269 0 0 0 1.146-2.896v-.211a3.387 3.387 0 0 0-.603-1.78 10.687 10.687 0 0 0-3.983-3.53l-1.237-.634-.664-.302-.663-.241-.574-.242-.634-.241-.693-.271c-.302-.09-.604-.181-.936-.271a18.07 18.07 0 0 0-2.776-.392c-.724-.03-1.448-.061-2.172-.061h-.061c-1.146 0-2.324 0-3.501-.03-.332-.03-.633-.03-.936-.03-.935 0-1.87.061-2.806.121-.271.03-.514.03-.755.03a15.903 15.903 0 0 1-2.686-.302 11.503 11.503 0 0 1-1.991-.543c-.423-.181-.905-.332-1.389-.483a4.092 4.092 0 0 1-.905-.362 10.158 10.158 0 0 0-1.025-.483 7.39 7.39 0 0 1-1.479-.725 38.383 38.383 0 0 0-1.569-.845c-.543-.272-1.086-.543-1.629-.875a9.124 9.124 0 0 0-1.871-.785 14.682 14.682 0 0 0-3.802-.573h-.271c-1.569 0-3.138.181-4.677.513-1.509.302-2.987.694-4.436 1.116l-1.237.393-.483.121.181-.272.422-.513.362-.422.543-.573.513-.483.694-.604 1.117-.965.965-.875.785-.815.966-1.237c.271-.453.482-.905.694-1.418a6.232 6.232 0 0 0 .362-1.841v-.151c0-.573-.091-1.177-.211-1.75 0-.06-.03-.09-.091-.09h-.06a34.671 34.671 0 0 1-2.293 3.742c-.422.634-.935 1.177-1.539 1.569l-.452.302c.301-.996.452-2.021.452-3.047l.03-.664-.06-.905-.061-.513c-.061-.151-.211-.272-.362-.272a.432.432 0 0 0-.393.272l-.121.513-.271.694-.332.875-.241.573-.422.845a2.394 2.394 0 0 1-.694.936c-.482.42-1.236.058-1.236-.576v-.09l.272-2.052c.06-.211.09-.422.121-.634v-.03c0-.09-.061-.151-.151-.181-.061-.03-.091-.03-.151-.03a.586.586 0 0 0-.302.09l-.996.815-.754.724-.694.694-1.509 1.72a.536.536 0 0 1-.905-.332l-.151-.905-.121-.936-.061-.936-.06-.995-.061-.393c-.03-.09-.09-.151-.181-.151a.516.516 0 0 0-.392.211 15.816 15.816 0 0 0-1.871 3.078 3.9 3.9 0 0 1-.633.935c-.302.302-.815.182-.936-.211-.121-.392-.241-.754-.362-1.146-.15-.453-.181-.785-.09-1.117.09-.453.121-.905.121-1.358 0-.271 0-.543-.03-.815l-.121-.875c0-.24-.211-.421-.453-.421a.432.432 0 0 0-.362.181 5.996 5.996 0 0 0-.754 1.177c-.423.814-.634 1.72-.694 2.625l-.03.543c-.814-.905-1.509-1.871-2.021-2.957l-.121-.242-.543 3.108-.211-.483-.182-.452-.302-.664-.573-1.116-.754-1.146c-.121-.121-.242-.242-.393-.362A.728.728 0 0 0 11.346 0a.81.81 0 0 0-.814.815c0 .121 0 .241.03.362.03.664.151 1.357.393 1.992l.241.693.393.845c.03.03.06.061.06.121a.341.341 0 0 1-.392.302l-.122-.03-.272-.09-.241-.151-.453-.271L8.6 3.289l-.211-.181-.302-.241-.212-.211-.181-.212-.331-.332c0-.03-.03-.03-.061-.06s-.06-.03-.121-.03-.121.03-.151.121c-.03.09-.03.151-.03.241 0 .091 0 .181.03.272.182.724.393 1.448.695 2.112l.483 1.237.151.392.03.151v.03c0 .09-.061.151-.121.211-.15.06-.301.06-.392-.03l-.543-.271-.604-.392-.604-.393-.664-.422-1.056-.815-1.327-1.147-1.117-1.086a.737.737 0 0 0-.272-.121c-.03 0-.06-.03-.09-.03-.09 0-.181.061-.241.151a.339.339 0 0 0-.09.241c0 .06.03.121.03.151a14.19 14.19 0 0 0 2.836 4.254c.573.574 1.146 1.117 1.78 1.6a17.426 17.426 0 0 0 2.324 1.569c.241.15.482.301.754.453.362.241.724.482 1.056.754.362.271.664.604.936.936l.241.332c-1.72.09-3.47.332-5.19.724-1.418.333-2.746.875-3.953 1.69A4.709 4.709 0 0 0 .03 18.196c-.03.06-.03.15-.03.241 0 .814.513 1.539 1.268 1.781.09.03.181.06.241.06a.74.74 0 0 0 .453-.151l.121-.09a2.241 2.241 0 0 0 1.056 1.388 4.02 4.02 0 0 0 1.931.513h.271c.724-.03 1.388-.121 2.082-.181.634-.09 1.268-.181 1.901-.302.362-.061.725-.09 1.117-.061.392.061.754.242 1.026.543.211.181.362.422.513.694.271.453.543.875.845 1.267a9.592 9.592 0 0 0 3.108 2.716c.664.362 1.328.694 2.022.966.694.301 1.448.542 2.233.693 1.388.332 2.716.543 4.043.785.785.121 1.599.332 2.384.634a7.738 7.738 0 0 1 1.871 1.086c.694.694 1.116 1.6 1.116 2.595v.061l-.06 1.448v.182c0 .845.211 1.659.604 2.383.09.212.181.393.271.574.03.15.09.271.121.423a4.542 4.542 0 0 1 .061 1.78 11.814 11.814 0 0 1-.302 1.689c-.09.513-.271.966-.543 1.418-.392.694-.875 1.388-1.358 2.052l-2.143 2.957-.814 1.147-1.298 1.87-1.176 1.69-1.177 1.72-1.569 2.505c-.483.845-1.056 1.6-1.69 2.323-.694.784-1.328 1.599-1.961 2.414a9.341 9.341 0 0 1-2.172 2.052l-.996.634-1.116.634-1.207.634-.271.211c-.061 0-.091.03-.121.061-.09.06-.15.15-.15.241v.091c.06.211.241.392.453.452.392.121.754.181 1.146.181h.181c1.328-.06 2.414-.12 3.53-.211a7.647 7.647 0 0 0 2.655-.724c.302-.121.574-.302.875-.483a4.13 4.13 0 0 0 .905-.875c.181-.271.393-.513.604-.754 1.207-1.6 2.354-3.229 3.5-4.889a25.842 25.842 0 0 1 1.931-2.535c1.147-1.327 2.203-2.686 3.259-4.043a69.077 69.077 0 0 1 4.074-4.828c.362-.393.754-.845 1.177-1.328.242-.271.604-.634.936-.935a4.082 4.082 0 0 0 1.117-1.781c.211-.633.453-1.207.664-1.78 1.237-2.896 5.462-2.564 6.216.513l.211.875.151.664.151.876.091.482c.302 1.298.573 2.595.785 3.893.061.302.15.664.211 1.026.061.331.151.633.272.936.392.936.845 1.84 1.388 2.686.422.664.965 1.236 1.569 1.75l2.504 1.931 1.508 1.298.694.663-1.392.573-.846.393-.753.331c-.544.182-1.177.362-1.811.574a11.43 11.43 0 0 0-1.297.513 3.44 3.44 0 0 0-1.237.936c-.121.15-.211.332-.211.513.03.604.272 1.207.664 1.63.302.331.724.573 1.146.663a6.037 6.037 0 0 0 1.63.212h.422a8.49 8.49 0 0 0 3.772-1.178l2.866-1.75.302-.211a34.216 34.216 0 0 0 3.923 2.746c.875.513 1.78.935 2.746 1.268a6.929 6.929 0 0 0 1.901.392l.392.03c.03-.15.03-.332.03-.482 0-.241-.03-.513-.06-.755a5.795 5.795 0 0 0-.423-1.268 5.285 5.285 0 0 0-.544-.875 15.197 15.197 0 0 0-1.116-1.327l-.452-.483-.543-.542-.694-.544-.604-.453-.483-.392-.543-.302-.482-.241a28.203 28.203 0 0 1 2.414-2.233 257.858 257.858 0 0 1 4.285-3.47c.604-.513 1.659-1.63 2.504-2.867.332-.452.514-1.025.544-1.599l.029-.423.091-.995a20.386 20.386 0 0 1 2.021-6.76l.182-.362c1.116 2.052 3.229 3.38 5.552 3.44h.212c1.599 0 3.138-.483 4.405-1.448l1.297-.936 1.057-.725 1.116-.693a.69.69 0 0 1 .423-.121 2.419 2.419 0 0 1 1.629.543c.182.121.332.271.423.453.15.211.241.422.362.663.15.332.241.694.302 1.026.029.332.061.573.091.845.06.332.09.725.15 1.086.061.604.181 1.178.362 1.75.15.574.332 1.147.482 1.721a14.746 14.746 0 0 0 1.69 4.014c.603.965 1.267 1.9 2.021 2.745.271.332.634.604.995.875l1.36.873a5.947 5.947 0 0 0 3.319.996h.03c.452 0 .814-.302.935-.724a3.94 3.94 0 0 0 .121-1.025c0-.694-.181-1.388-.513-2.022zM63.308 46.41a16.21 16.21 0 0 1-1.419 4.225 18.452 18.452 0 0 1-5.4 6.396l-.333-.271a27.61 27.61 0 0 1-3.53-3.741L51.51 51.6a8.893 8.893 0 0 1-1.056-2.232 12.19 12.19 0 0 1-.543-2.927c-.09-1.901-.03-3.833.181-5.764.664 0 1.328 0 1.991.061.543.06 1.087.12 1.629.271 1.238.302 2.535.482 3.833.482 1.237 0 2.475-.15 3.682-.452a8.132 8.132 0 0 0 2.323-.905l.061.724c.029.544.029 1.026.029 1.539a25.573 25.573 0 0 1-.332 4.013z"/></svg>